<svg width="128" height="128" viewBox="0 0 128 128" fill="none" xmlns="http://www.w3.org/2000/svg">
<g clip-path="url(#clip0_20_7)">
<rect width="128" height="128" rx="24" fill="#22619B"/>
<path d="M21.7414 107L31.3734 17.4H49.8534L50.6934 25.408H38.2614L36.1894 54.584L34.3414 73.68H43.6934L41.5654 81.688H33.5014L30.8694 107H21.7414ZM50.1894 107L45.0374 54.416L43.1894 30H51.0294L59.2614 107H50.1894ZM69.0807 107V17.4H77.9847V107H69.0807ZM83.9207 107V98.992H86.7767C89.4647 98.992 91.3687 98.5253 92.4887 97.592C93.6087 96.6213 94.1874 95.016 94.2247 92.776C94.3367 87.0267 94.43 81.6693 94.5047 76.704C94.5794 71.7387 94.6167 66.904 94.6167 62.2C94.6167 57.4587 94.5794 52.6053 94.5047 47.64C94.43 42.6747 94.3367 37.3173 94.2247 31.568C94.1874 29.328 93.5714 27.7413 92.3767 26.808C91.182 25.8747 89.11 25.408 86.1607 25.408H83.9207V17.4H86.1607C92.134 17.4 96.4274 18.5573 99.0407 20.872C101.654 23.1867 102.998 26.9947 103.073 32.296C103.185 39.3893 103.259 46.1467 103.297 52.568C103.334 58.9893 103.334 65.4107 103.297 71.832C103.259 78.216 103.185 84.9547 103.073 92.048C102.998 97.3867 101.691 101.213 99.1527 103.528C96.614 105.843 92.4887 107 86.7767 107H83.9207Z" fill="white"/>
</g>
<defs>
<clipPath id="clip0_20_7">
<rect width="128" height="128" rx="24" fill="white"/>
</clipPath>
</defs>
</svg>
