<svg width="32" height="32" viewBox="0 0 32 32" fill="none" xmlns="http://www.w3.org/2000/svg">
<g clip-path="url(#clip0_7_2)">
<rect width="32" height="32" rx="6" fill="#22619B"/>
<path d="M5.43536 27L7.84336 4.6H12.4634L12.6734 6.602H9.56536L9.04736 13.896L8.58536 18.67H10.9234L10.3914 20.672H8.37536L7.71736 27H5.43536ZM12.5474 27L11.2594 13.854L10.7974 7.75H12.7574L14.8154 27H12.5474ZM17.2702 27V4.6H19.4962V27H17.2702ZM20.9802 27V24.998H21.6942C22.3662 24.998 22.8422 24.8813 23.1222 24.648C23.4022 24.4053 23.5468 24.004 23.5562 23.444C23.5842 22.0067 23.6075 20.6673 23.6262 19.426C23.6448 18.1847 23.6542 16.976 23.6542 15.8C23.6542 14.6147 23.6448 13.4013 23.6262 12.16C23.6075 10.9187 23.5842 9.57933 23.5562 8.142C23.5468 7.582 23.3928 7.18533 23.0942 6.952C22.7955 6.71867 22.2775 6.602 21.5402 6.602H20.9802V4.6H21.5402C23.0335 4.6 24.1068 4.88933 24.7602 5.468C25.4135 6.04667 25.7495 6.99867 25.7682 8.324C25.7962 10.0973 25.8148 11.7867 25.8242 13.392C25.8335 14.9973 25.8335 16.6027 25.8242 18.208C25.8148 19.804 25.7962 21.4887 25.7682 23.262C25.7495 24.5967 25.4228 25.5533 24.7882 26.132C24.1535 26.7107 23.1222 27 21.6942 27H20.9802Z" fill="white"/>
</g>
<defs>
<clipPath id="clip0_7_2">
<rect width="32" height="32" rx="6" fill="white"/>
</clipPath>
</defs>
</svg>
