<svg width="64" height="64" viewBox="0 0 64 64" fill="none" xmlns="http://www.w3.org/2000/svg">
<g clip-path="url(#clip0_20_3)">
<rect width="64" height="64" rx="12" fill="#22619B"/>
<path d="M10.8707 53.5L15.6867 8.7H24.9267L25.3467 12.704H19.1307L18.0947 27.292L17.1707 36.84H21.8467L20.7827 40.844H16.7507L15.4347 53.5H10.8707ZM25.0947 53.5L22.5187 27.208L21.5947 15H25.5147L29.6307 53.5H25.0947ZM34.5403 53.5V8.7H38.9923V53.5H34.5403ZM41.9603 53.5V49.496H43.3883C44.7323 49.496 45.6843 49.2627 46.2443 48.796C46.8043 48.3107 47.0937 47.508 47.1123 46.388C47.1683 43.5133 47.215 40.8347 47.2523 38.352C47.2897 35.8693 47.3083 33.452 47.3083 31.1C47.3083 28.7293 47.2897 26.3027 47.2523 23.82C47.215 21.3373 47.1683 18.6587 47.1123 15.784C47.0937 14.664 46.7857 13.8707 46.1883 13.404C45.591 12.9373 44.555 12.704 43.0803 12.704H41.9603V8.7H43.0803C46.067 8.7 48.2137 9.27867 49.5203 10.436C50.827 11.5933 51.499 13.4973 51.5363 16.148C51.5923 19.6947 51.6297 23.0733 51.6483 26.284C51.667 29.4947 51.667 32.7053 51.6483 35.916C51.6297 39.108 51.5923 42.4773 51.5363 46.024C51.499 48.6933 50.8457 50.6067 49.5763 51.764C48.307 52.9213 46.2443 53.5 43.3883 53.5H41.9603Z" fill="white"/>
</g>
<defs>
<clipPath id="clip0_20_3">
<rect width="64" height="64" rx="12" fill="white"/>
</clipPath>
</defs>
</svg>
